<?xml version="1.0" encoding="UTF-8" standalone="no"?>
<svg
   xmlns:dc="http://purl.org/dc/elements/1.1/"
   xmlns:cc="http://creativecommons.org/ns#"
   xmlns:rdf="http://www.w3.org/1999/02/22-rdf-syntax-ns#"
   xmlns:svg="http://www.w3.org/2000/svg"
   xmlns="http://www.w3.org/2000/svg"
   version="1.1"
   id="Layer_1"
   x="0px"
   y="0px"
   width="681.35876"
   height="426.77017"
   viewBox="0 0 681.35876 426.77017"
   enable-background="new 0 0 864 864"
   xml:space="preserve"><metadata
   id="metadata21"><rdf:RDF><cc:Work
       rdf:about=""><dc:format>image/svg+xml</dc:format><dc:type
         rdf:resource="http://purl.org/dc/dcmitype/StillImage" /><dc:title></dc:title></cc:Work></rdf:RDF></metadata><defs
   id="defs19">
	
	
	
	
	
	
</defs>
<path
   id="path2"
   d="m 370.54458,0.00722785 c -8.85538,-0.06488 -17.72152,0.308875 -26.47852,1.04687495 -29.42773,2.479443 -55.82439,11.7818182 -80.87109,24.1093752 -3.25127,-0.355354 -8.1439,-0.860619 -13.87891,-1.382812 0.008,-0.0045 0.0155,-0.0092 0.0234,-0.01367 -54.985,-9.129 -117.41488,20.769812 -120.54688,93.382814 -0.50377,11.68069 -0.80712,23.37038 -1.00976,35.06445 -45.76787,22.01776 -89.8171,70.36387 -114.04174,113.78633 -18.9610032,33.987 -15.8987492,80.81658 -5.2297502,117.96758 2.2378302,7.79243 8.1564802,16.12517 16.7363302,23.42383 -0.006,0.007 -0.012,0.0128 -0.0176,0.0195 0.0323,0.0168 0.0672,0.0302 0.0996,0.0469 6.30403,5.34769 14.03627,10.13349 22.8086,13.73633 15.1501,7.19663 31.81001,6.8596 47.81445,2.21094 37.401,-10.867 74.48214,-23.4135 110.61914,-37.9375 69.766,-28.043 138.03999,-59.91619 208.33399,-86.49219 61.035,-23.075 124.91346,-33.04253 190.85546,-26.51953 15.455,1.528 32.28953,-0.71922 47.14454,-5.44922 30.08399,-9.579 37.66065,-39.86408 16.22265,-62.58008 -11.447,-12.131 -24.46331,-23.36411 -38.44531,-32.41211 -43.17671,-27.93966 -90.6769,-32.01052 -138.89844,-23.58789 -6.50959,-23.53678 -16.6798,-62.732343 -23.39062,-84.671873 -10.883,-35.576 -34.0276,-57.7911562 -71.4336,-62.1601562 -8.7155,-1.01849995 -17.56064,-1.52301595 -26.41601,-1.58789095 z" />
</svg>
