<?xml version="1.0" encoding="UTF-8" standalone="no"?>
<svg
   xmlns:dc="http://purl.org/dc/elements/1.1/"
   xmlns:cc="http://creativecommons.org/ns#"
   xmlns:rdf="http://www.w3.org/1999/02/22-rdf-syntax-ns#"
   xmlns:svg="http://www.w3.org/2000/svg"
   xmlns="http://www.w3.org/2000/svg"
   id="svg4522"
   version="1.1"
   width="768"
   height="112.57919"
   viewBox="0 0 768 112.57919">
  <metadata
     id="metadata4528">
    <rdf:RDF>
      <cc:Work
         rdf:about="">
        <dc:format>image/svg+xml</dc:format>
        <dc:type
           rdf:resource="http://purl.org/dc/dcmitype/StillImage" />
        <dc:title></dc:title>
      </cc:Work>
    </rdf:RDF>
  </metadata>
  <defs
     id="defs4526" />
  <path
     style="fill:#000000"
     d="m -2.5141574,71.97735 0,-40.601851 0.7641159,-0.348153 c 0.4202648,-0.191485 3.6136581,-0.348156 4.0235728,-0.348156 0.4099148,0 0.8205004,-0.195969 0.9124126,-0.435489 0.091912,-0.23952 0.6168762,-0.583926 1.1665869,-0.765345 0.5497107,-0.181422 1.1618028,-0.525453 1.3602051,-0.764511 0.6150387,-0.741078 1.4204625,-0.521745 1.6327113,0.444615 0.1062159,0.4836 0.3869424,1.04013 0.6238365,1.236735 C 8.2061775,30.5918 8.4,30.871127 8.4,31.015922 c 0,0.739782 1.2602541,1.390128 3.325924,1.716328 3.367591,0.53178 4.939083,0.51581 5.731908,-0.0583 0.380692,-0.275652 1.221564,-0.853554 1.868604,-1.284222 0.64704,-0.430671 1.439762,-1.028361 1.761605,-1.328202 0.874661,-0.814842 4.955226,-3.582336 5.282061,-3.582336 0.321597,0 4.101099,-2.259534 7.669293,-4.585005 2.113941,-1.377699 2.580834,-1.560723 4.05,-1.5876 0.976953,-0.01788 2.235924,-0.288117 3.058068,-0.656424 0.768606,-0.344325 1.459197,-0.564312 1.534644,-0.488865 0.07545,0.07545 1.26909,-0.513315 2.652537,-1.308366 1.383444,-0.795051 3.257856,-1.797402 4.165356,-2.227449 0.9075,-0.430047 2.256702,-1.330335 2.99823,-2.00064 0.836127,-0.75582 2.2605,-1.576422 3.75,-2.160426 1.320972,-0.517929 3.733449,-1.8402363 5.361054,-2.9384583 1.627608,-1.098222 3.180108,-2.145072 3.45,-2.326335 2.263986,-1.520517 5.530038,-3.411252 6.640716,-3.844347 0.7425,-0.289527 1.600422,-0.751341 1.906497,-1.026249 0.306072,-0.274911 0.611238,-0.46335005 0.678144,-0.41875805 0.06691,0.0446 0.558891,-0.145029 1.093302,-0.421383 0.915021,-0.473175 3.366438,-0.665316 3.738714,-0.293037 0.09359,0.09359 0.01467,1.28688305 -0.175365,2.65175405 -0.543735,3.905052 -0.509571,4.129119 0.530532,3.479562 0.806226,-0.503496 1.494606,-0.11262 2.185698,1.241088 0.279138,0.546771 0.857739,1.414161 1.285785,1.927533 0.428046,0.5133723 0.768096,1.0684053 0.755673,1.2334053 -0.01242,0.165 0.420342,0.3675 0.961707,0.45 0.959079,0.146157 0.996222,0.207654 1.4496,2.4 0.649293,3.139695 0.835734,3.38457 2.890302,3.796143 0.959565,0.192222 1.8672,0.273765 2.016963,0.181206 0.149763,-0.09256 0.730185,-0.209376 1.289826,-0.259593 0.868512,-0.07793 1.063191,0.02757 1.329333,0.720468 0.239292,0.622983 0.203148,1.021086 -0.155406,1.711776 -0.256968,0.495 -0.593205,1.483413 -0.747195,2.196471 -0.15399,0.713061 -0.468555,1.523061 -0.699036,1.8 C 91.394685,24.495137 90.9,25.814093 90.9,26.752055 c 0,0.833652 -1.035777,2.459697 -2.501556,3.927135 -0.725433,0.726258 -0.741147,0.82764 -0.496404,3.20248 0.139011,1.34887 0.39792,2.72374 0.575352,3.05528 0.177435,0.33154 0.322608,1.27573 0.322608,2.09821 0,2.67657 1.609035,4.31573 4.05,4.12583 1.313541,-0.10218 4.747272,-1.484 5.7,-2.29382 0.33,-0.2805 1.168122,-0.59574 1.86249,-0.70053 l 1.2625,-0.19054 0.36578,1.22086 c 0.31682,1.05748 0.29449,1.34154 -0.16693,2.12265 -0.73629,1.24645 -0.4238,2.58745 0.97887,4.20053 1.04294,1.19939 1.11573,1.39701 0.86894,2.35905 -0.6687,2.60675 -0.64222,3.02729 0.23824,3.78385 0.45839,0.39388 0.93671,0.71615 1.06293,0.71615 0.12623,0 0.31263,0.37846 0.41423,0.84102 0.13403,0.61025 0.44386,0.91895 1.12912,1.125 0.75031,0.22562 1.03067,0.54602 1.36412,1.55898 0.35816,1.08802 0.54037,1.275 1.24242,1.275 0.49755,0 1.11014,0.30677 1.55,0.7762 0.40001,0.4269 1.16604,0.96001 1.70229,1.18469 0.76328,0.31979 0.975,0.58693 0.975,1.23024 0,1.11088 1.17803,2.76005 2.1,2.93987 2.31032,0.4506 3.68032,0.52445 3.87533,0.20891 0.30722,-0.49709 2.00553,-0.61551 2.81376,-0.1962 0.65175,0.33814 1.88163,0.73597 2.88857,0.93439 0.23522,0.0463 0.75847,0.50696 1.16278,1.02357 1.41961,1.81393 4.67689,2.75021 5.98456,1.72023 0.24608,-0.19382 0.50392,-0.19382 0.75,0 0.71894,0.56627 2.09543,0.70072 5.07381,0.49559 2.43634,-0.1678 3.19363,-0.33883 4.03826,-0.91201 0.57176,-0.38801 1.2246,-0.70548 1.45075,-0.70548 0.22614,0 1.45472,-0.55289 2.73017,-1.22866 1.27545,-0.67576 2.80568,-1.40137 3.40051,-1.61248 0.59482,-0.21111 2.00557,-0.82154 3.13499,-1.35652 1.75608,-0.83181 2.16258,-0.92298 2.80664,-0.62953 0.93467,0.42586 2.28277,0.0158 4.43987,-1.35051 2.023,-1.28138 3.52157,-1.72308 5.04438,-1.48683 0.69059,0.10714 1.79562,0.2274 2.45562,0.26724 0.66,0.0399 1.44724,0.1867 1.74941,0.32634 0.30218,0.13963 1.44968,0.18288 2.55,0.0961 1.10033,-0.0868 2.27059,-0.0549 2.60059,0.0708 0.70181,0.26743 1.55843,-0.11548 2.4,-1.07276 0.33,-0.37538 0.9867,-0.77768 1.45933,-0.894 0.8141,-0.20037 4.99564,-3.17095 6.94067,-4.93068 0.79918,-0.72304 1.53614,-1.15092 4.35,-2.5256 0.4125,-0.20152 1.02,-0.51027 1.35,-0.6861 3.40151,-1.81244 3.67458,-1.89927 5.4354,-1.72827 0.95472,0.0927 1.88443,0.29189 2.06603,0.44261 0.20515,0.17026 0.64959,0.10831 1.17367,-0.16358 1.00122,-0.51945 1.9749,-0.57083 1.9749,-0.10422 0,0.2162 0.35599,0.2666 1.01272,0.1434 0.99043,-0.18581 1.01994,-0.16136 1.34024,1.11069 0.34292,1.36186 1.17163,2.05838 2.29704,1.93063 0.45309,-0.0514 0.6058,0.11553 0.62369,0.68189 0.0502,1.58955 0.13512,1.8 0.72631,1.8 0.42609,0 0.6,-0.2 0.6,-0.69 0,-1.06928 0.54326,-1.4063 1.95498,-1.2128 0.88109,0.12077 1.47622,0.0307 1.98068,-0.29987 0.68309,-0.44757 1.81996,-1.05751 6.71434,-3.60223 1.56616,-0.81429 2.59571,-1.13132 4.05,-1.24708 1.0725,-0.0854 2.30843,-0.29968 2.74652,-0.47622 1.11427,-0.44905 2.21329,-0.24616 2.1625,0.39921 -0.0301,0.38222 0.0804,0.4528 0.41536,0.26534 0.2764,-0.15468 1.02124,-0.0747 1.88895,0.20276 1.43132,0.45772 1.43394,0.45728 2.90861,-0.48902 1.83468,-1.17731 4.64453,-2.20207 6.22806,-2.27139 0.69814,-0.0306 1.7986,-0.40604 2.63131,-0.89782 1.61984,-0.95663 2.93777,-0.91669 4.05358,0.12285 0.35202,0.32795 0.70814,0.59627 0.79139,0.59627 0.0832,0 0.6884,-0.79083 1.34479,-1.75739 0.72611,-1.06925 1.5999,-1.95028 2.23151,-2.25 1.23569,-0.58637 4.31416,-0.65437 5.48448,-0.12114 0.63634,0.28993 0.84191,0.29163 0.93654,0.008 0.172,-0.516 1.41865,-1.77198 3.6764,-3.70394 2.49486,-2.13485 3.5411,-2.83716 4.61344,-3.09686 0.47489,-0.11502 1.24163,-0.58731 1.70387,-1.04954 0.46223,-0.46223 1.35618,-1.082122 1.98656,-1.377529 0.63037,-0.295407 1.64473,-0.983037 2.25413,-1.528071 0.99677,-0.891486 3.39446,-1.870785 3.73837,-1.526877 0.0747,0.07469 0.15618,0.406236 0.18108,0.736758 0.0631,0.837612 0.44821,0.58125 2.17255,-1.446204 1.4759,-1.735344 2.21024,-2.087598 3.13384,-1.503264 0.26794,0.169518 0.65308,0.157134 1.0072,-0.03239 0.39802,-0.213012 0.67362,-0.20661 0.90117,0.02094 0.18028,0.180285 0.69475,0.327792 1.14325,0.327792 1.03478,0 1.80566,0.290754 1.61006,0.607257 -0.0831,0.134415 0.30637,0.395349 0.86544,0.579858 0.55907,0.184509 1.23915,0.581511 1.51129,0.882222 0.56134,0.620271 0.45444,0.985956 -1.01747,3.480668 -1.27211,2.15606 -1.215,2.33193 0.68036,2.09512 1.52435,-0.19045 1.60152,-0.16539 2.01206,0.65341 0.23481,0.46831 0.60187,1.06501 0.81569,1.32601 0.44716,0.5458 0.55686,3.44665 0.23449,6.20046 -0.14752,1.26011 -0.11508,1.875 0.0989,1.875 0.17512,0 0.42978,0.56323 0.56592,1.25162 0.13614,0.68839 0.38211,1.29648 0.5466,1.35132 0.1645,0.0548 0.72377,-0.54903 1.24283,-1.3419 0.51906,-0.79288 1.52979,-1.83934 2.24605,-2.32548 0.71627,-0.48613 1.36981,-0.95501 1.45231,-1.04194 0.0825,-0.0869 0.8925,-0.53671 1.8,-0.9995 1.56948,-0.80037 2.40873,-1.36637 5.64276,-3.80547 1.575,-1.18787 2.45724,-1.2318 2.45724,-0.12237 0,0.50021 0.20886,0.77471 0.67932,0.89279 0.37365,0.0938 1.00776,0.64981 1.40919,1.23564 0.81048,1.18281 2.02143,1.81533 2.52033,1.31644 0.36981,-0.36979 3.79116,-0.42331 3.79116,-0.0593 0,0.13852 0.35073,0.41166 0.77943,0.60698 0.4836,0.22034 0.717,0.51776 0.61497,0.78365 -0.18183,0.47381 1.30191,1.35753 2.27925,1.35753 0.77127,0 1.9086,0.8743 4.78053,3.675 1.31127,1.27875 2.49948,2.325 2.64051,2.325 0.39378,0 1.57134,2.05046 1.36722,2.38073 -0.29229,0.47294 0.16698,1.81927 0.62061,1.81927 0.22962,0 0.41748,-0.135 0.41748,-0.3 0,-0.165 0.27,-0.3 0.6,-0.3 0.34878,0 0.6,-0.2 0.6,-0.47768 0,-0.26273 0.27,-0.82094 0.6,-1.24046 0.33,-0.41953 0.6,-0.93054 0.6,-1.13559 0,-0.20504 0.21189,-0.54866 0.47085,-0.76358 0.25899,-0.21493 0.40662,-0.63646 0.32808,-0.93673 -0.0785,-0.30028 -0.0186,-0.54596 0.13305,-0.54596 0.25521,0 1.21596,-1.85981 1.5876,-3.07329 0.51999,-1.69781 6.47766,-3.25647 9.46971,-2.47748 0.83391,0.21711 1.34991,0.51813 1.33281,0.77752 -0.0213,0.32407 0.48945,0.43574 2.1798,0.47657 1.21425,0.0293 2.70153,0.21629 3.3051,0.41549 0.60357,0.19919 1.98513,0.40832 3.0702,0.46472 1.08504,0.0564 2.30799,0.13943 2.7177,0.18451 0.42504,0.0468 0.74706,-0.0735 0.75,-0.28013 0.006,-0.43429 1.04589,-1.26499 1.60011,-1.27837 0.21726,-0.005 0.83751,-0.34704 1.37832,-0.75954 1.12839,-0.86067 2.75442,-1.04595 2.46066,-0.28039 -0.25788,0.67202 0.95898,0.25451 1.85997,-0.63817 0.528,-0.5231 0.92265,-0.65105 1.65,-0.53493 0.7923,0.1265 1.00743,0.0328 1.25604,-0.54694 0.24621,-0.57417 0.54201,-0.70676 1.65,-0.73969 0.7425,-0.0221 1.72257,-0.0558 2.17794,-0.075 0.45537,-0.0192 1.05912,-0.30488 1.34166,-0.63488 0.5694,-0.665 1.42452,-0.75848 2.65581,-0.29034 0.68463,0.26029 0.98922,0.18856 1.91064,-0.45 1.21533,-0.84222 2.16516,-0.96561 2.7708,-0.35994 0.64002,0.63999 3.30813,0.836 4.30932,0.31657 0.47142,-0.24457 1.44168,-0.52479 2.15616,-0.62272 1.04457,-0.14318 1.4292,-0.0597 1.96338,0.42593 0.68949,0.6269 2.02665,1.05199 3.06429,0.97415 2.5446,-0.19089 3.86016,-0.0592 4.21182,0.42178 0.29325,0.40104 0.87282,0.51985 2.64816,0.54288 1.25001,0.0162 2.44539,-0.10141 2.65638,-0.2614 0.73962,-0.5608 3.71961,0.007 4.42224,0.84238 0.3558,0.42308 1.02786,0.58175 2.9364,0.69325 1.36125,0.0795 2.475,0.0311 2.475,-0.10758 0,-0.13869 0.41202,-0.42284 0.91563,-0.63143 0.7386,-0.30595 1.13889,-0.30557 2.07069,0.002 0.63531,0.20967 1.57326,0.31984 2.08437,0.24482 0.64068,-0.094 0.92931,-0.0128 0.92931,0.26165 0,0.2361 0.34227,0.39804 0.84126,0.39804 0.46269,0 1.4937,0.41376 2.2911,0.91945 1.01421,0.64321 1.74693,0.89385 2.43882,0.83424 0.79596,-0.0686 1.12338,0.0887 1.67751,0.80555 0.37869,0.48992 0.86013,1.06916 1.06992,1.28719 0.20976,0.21804 0.38139,0.52179 0.38139,0.675 0,0.15322 0.27,0.27857 0.6,0.27857 0.33,0 0.6,-0.11748 0.6,-0.26108 0,-0.14359 0.7245,-0.98734 1.61004,-1.875 0.88551,-0.88765 1.76775,-1.91767 1.96056,-2.28892 0.21606,-0.41609 0.6276,-0.675 1.07295,-0.675 0.39732,0 0.89883,-0.24058 1.11444,-0.53463 0.6759,-0.9218 3.90435,-0.29688 4.31082,0.83443 0.089,0.24761 0.54795,0.75435 1.01997,1.12609 0.74982,0.5905 1.30242,0.69337 4.37451,0.81437 3.12186,0.12296 3.67164,0.0673 4.90149,-0.49607 1.27563,-0.58438 1.55088,-0.6064 3.47958,-0.27844 1.15188,0.19587 2.39589,0.55371 2.76444,0.79519 0.85584,0.56078 2.31309,0.56516 2.77521,0.008 0.19659,-0.23689 0.73083,-0.51272 1.18719,-0.61295 0.97626,-0.21443 3.0288,-2.2696 3.0288,-3.03268 0,-0.46578 1.72854,-3.30752 2.55132,-4.19436 0.16572,-0.17864 0.56979,-0.87671 0.8979,-1.55127 0.33471,-0.68815 1.0689,-1.51839 1.67268,-1.891566 0.65874,-0.407127 1.1832,-1.025826 1.35213,-1.595154 0.23313,-0.785709 0.47388,-0.968604 1.55097,-1.17834 0.97686,-0.190218 1.275,-0.38445 1.275,-0.830619 0,-0.320289 0.15081,-0.582345 0.3351,-0.582345 0.33498,0 2.6649,-2.2485 2.6649,-2.571771 0,-0.0941 0.16983,-0.340905 0.37737,-0.54846 0.27456,-0.27456 0.82626,-0.311379 2.025,-0.135144 0.90621,0.133227 2.76138,0.399378 4.12263,0.59145 1.36125,0.192069 2.475,0.475368 2.475,0.629556 0,0.154188 0.43875,0.256317 0.975,0.226959 1.85754,-0.101697 2.21331,0.01251 3.38646,1.087068 1.33227,1.220322 2.82894,2.04792 4.26354,2.357568 0.53625,0.115746 0.975,0.318342 0.975,0.450213 0,0.452511 1.89774,1.025481 3.48201,1.05129 1.20231,0.01959 1.7568,0.187089 2.2959,0.693549 0.39093,0.367248 0.91284,0.667726 1.15986,0.667726 0.24699,0 0.7389,0.27 1.09311,0.6 0.35421,0.33 0.7821,0.6 0.95085,0.6 0.16878,0 0.39156,0.3375 0.49509,0.75 0.10353,0.4125 0.31422,0.75 0.46824,0.75 0.15402,0 0.54888,0.25046 0.87744,0.55658 0.32859,0.30612 1.13259,0.81237 1.78671,1.125 0.65409,0.31263 1.26621,0.80467 1.36023,1.09342 0.0941,0.28875 0.29586,0.525 0.44847,0.525 0.15261,0 0.64974,0.43273 1.10478,0.96163 0.45501,0.5289 1.40106,1.58915 2.10231,2.35611 0.70125,0.76697 1.275,1.55347 1.275,1.74779 0,0.19431 0.2025,0.43101 0.45,0.52598 0.2475,0.095 0.45,0.30036 0.45,0.4564 0,0.44666 3.11733,5.07586 4.29933,6.38444 0.58737,0.6503 1.3104,1.6628 1.60674,2.25 0.80748,1.60016 1.314,2.11765 2.07273,2.11765 0.37719,0 0.76686,0.13116 0.86592,0.29146 0.0991,0.1603 0.74829,0.56216 1.4427,0.89301 3.14505,1.49847 3.79992,2.05576 3.80799,3.24053 0.003,0.47697 0.18339,0.675 0.61401,0.675 0.33516,0 0.68352,0.19316 0.77412,0.42925 0.0976,0.25445 0.54552,0.41842 1.0998,0.40266 0.51432,-0.0146 0.98721,0.12971 1.05087,0.32075 0.0637,0.19104 0.38418,0.34734 0.71223,0.34734 0.74757,0 1.77438,0.94305 1.22589,1.12589 -0.61896,0.20632 -0.4179,0.9519 0.30267,1.12237 0.37125,0.0878 1.35,0.19165 2.175,0.23071 1.00164,0.0474 1.66863,0.25401 2.00754,0.62179 0.32817,0.35614 0.71982,0.48338 1.10829,0.36008 0.43824,-0.13909 0.73641,0.0163 1.10199,0.57424 0.27564,0.4207 0.72558,0.76492 0.99981,0.76492 0.71142,0 3.31077,2.56816 3.71961,3.675 0.13455,0.36428 0.51825,0.525 1.25334,0.525 0.58269,0 1.05942,0.135 1.05942,0.3 0,0.165 0.45378,0.3 1.00839,0.3 0.91386,0 0.99498,0.0703 0.86505,0.75 -0.15972,0.83552 0.19734,0.95057 1.22127,0.39351 0.36042,-0.19606 1.08042,-0.32189 1.59999,-0.27962 0.5196,0.0423 1.0338,-0.0673 1.1427,-0.24352 0.456,-0.73779 1.88508,-0.31498 3.2586,0.96411 0.80913,0.75348 1.91151,1.43389 2.66667,1.64589 1.12467,0.31576 3.23733,1.84075 3.23733,2.33683 0,0.0966 0.18309,0.35876 0.40689,0.58255 0.52905,0.52906 2.59311,0.92876 2.59311,0.50215 0,-0.17318 0.405,-0.75829 0.9,-1.30024 0.495,-0.54196 0.9,-1.14205 0.9,-1.33353 0,-0.68179 3.16002,-0.99182 4.55547,-0.44694 0.78651,0.30711 1.92216,1.31167 2.10585,1.8628 0.14541,0.43615 2.93868,0.66625 2.93868,0.24207 0,-0.36588 1.56015,0.42345 2.08359,1.05416 0.49782,0.59986 1.48266,0.60684 1.71087,0.0121 0.25065,-0.65323 0.88893,-0.0547 1.31349,1.23178 0.33888,1.02681 0.75165,1.25051 2.36505,1.2818 0.39765,0.008 0.82674,0.18185 0.95352,0.38699 0.18075,0.29246 0.40008,0.29571 1.0161,0.015 0.43209,-0.19687 1.15725,-0.35795 1.61151,-0.35795 0.45423,0 0.95412,-0.12278 1.11087,-0.27284 0.6855,-0.65626 4.935,1.35898 4.935,2.34032 0,0.14712 0.31275,0.34597 0.69498,0.44191 0.38223,0.0959 0.87753,0.51557 1.1007,0.93252 0.33909,0.63361 0.62142,0.7581 1.71939,0.7581 1.50822,0 2.19144,0.59164 3.72576,3.22635 1.17228,2.01303 2.00151,2.65057 4.04118,3.10703 0.90495,0.20252 1.71468,0.48036 1.7994,0.61742 0.0847,0.13705 0.49317,0.24919 0.90771,0.24919 0.77604,0 1.61088,0.6108 1.61088,1.17858 0,0.65181 2.58147,-0.0225 3.18267,-0.83138 0.20193,-0.27167 0.76548,-0.43132 1.43382,-0.4062 0.67974,0.0256 1.30731,-0.15614 1.63992,-0.4748 0.89913,-0.86144 3.10686,-1.82284 4.69359,-2.04392 0.825,-0.11495 2.47437,-0.67046 3.66531,-1.23445 2.14779,-1.01717 2.18898,-1.02375 5.1,-0.81502 1.61406,0.11574 3.25485,0.32961 3.64617,0.47526 0.85377,0.31779 1.84833,-0.26659 1.17771,-0.69199 -0.22875,-0.14511 -0.25308,-0.24878 -0.059,-0.25148 0.29145,-0.004 2.21985,-2.78943 2.21985,-3.20636 0,-0.29476 1.84578,-2.49823 2.09268,-2.49823 0.13326,0 0.32697,0.3375 0.4305,0.75 0.23883,0.95151 1.54827,1.02344 2.66337,0.1463 0.42213,-0.33204 1.31784,-0.65671 1.99047,-0.7215 1.13313,-0.10914 1.22298,-0.0632 1.22298,0.62513 0,0.89342 0.7119,1.68067 1.39893,1.54697 0.27387,-0.0533 0.65625,-0.5694 0.84975,-1.1469 0.23607,-0.70466 0.5655,-1.08153 1.00155,-1.14587 0.35736,-0.0527 0.64977,-0.23835 0.64977,-0.4125 0,-0.49655 1.73655,-0.0326 2.7354,0.73074 0.48768,0.3727 1.33827,1.04888 1.89024,1.50263 0.55197,0.45375 1.15449,0.825 1.33896,0.825 0.18447,0 0.3354,0.135 0.3354,0.3 0,0.165 0.54,0.3 1.2,0.3 0.81927,0 1.2,0.13112 1.2,0.41326 0,0.2273 0.2025,0.58133 0.45,0.78674 0.2475,0.2054 0.45,0.69443 0.45,1.08673 0,0.3923 0.135,0.71327 0.3,0.71327 0.165,0 0.3,0.44558 0.3,0.99019 0,0.5446 0.1644,1.33856 0.36534,1.76435 l 0.36534,0.77416 1.28466,-0.62413 c 0.70656,-0.34327 1.28466,-0.79973 1.28466,-1.01436 0,-0.21462 0.2025,-0.39021 0.45,-0.39021 0.32499,0 0.45,-0.33334 0.45,-1.2 0,-1.10652 0.0643,-1.20083 0.825,-1.21064 0.45375,-0.006 1.1625,-0.20356 1.575,-0.43936 0.4125,-0.23581 1.32375,-0.43353 2.025,-0.43937 0.70125,-0.006 1.275,-0.13535 1.275,-0.28779 0,-0.15244 1.04625,-0.35257 2.325,-0.44473 5.67234,-0.40883 6.83655,-0.55412 7.03683,-0.87814 0.15849,-0.25646 0.30876,-0.24939 0.58569,0.0275 0.4458,0.44581 1.45248,0.49605 1.45248,0.0725 0,-0.165 0.27,-0.3 0.6,-0.3 0.37053,0 0.6009,-0.20078 0.60234,-0.525 0.003,-0.49364 1.20351,-1.275 1.96026,-1.275 0.62457,0 4.63593,-4.31704 4.63668,-4.99001 0,-1.1007 2.20782,-1.3739 3.53787,-0.43803 0.44706,0.31458 1.33851,0.66184 1.98096,0.77168 0.64245,0.10985 1.36086,0.39247 1.59642,0.62805 0.48945,0.48942 1.58547,0.57813 1.58547,0.12831 0,-0.165 0.23625,-0.54707 0.525,-0.84906 0.28875,-0.30198 1.2,-1.85296 2.025,-3.44662 0.825,-1.59366 1.66875,-2.89908 1.875,-2.90094 0.20625,-0.002 0.375,-0.20588 0.375,-0.45338 0,-0.2475 -0.135,-0.45 -0.3,-0.45 -0.57747,0 -0.29193,-1.5074 0.63849,-3.37061 2.12199,-4.24948 2.33031,-4.58052 2.94225,-4.67525 0.34059,-0.0527 0.61926,-0.28898 0.61926,-0.525 0,-0.23603 0.135,-0.42914 0.3,-0.42914 0.165,0 0.3,-0.32953 0.3,-0.73229 0,-0.40276 0.12192,-0.80765 0.27093,-0.89974 0.14901,-0.0921 0.77781,-1.24757 1.39731,-2.56771 0.6195,-1.32014 1.30758,-2.40026 1.52907,-2.40026 0.22149,0 0.40269,-0.1312 0.40269,-0.29156 0,-0.16035 0.6276,0.0421 1.39467,0.45 0.7671,0.40786 1.56165,0.74156 1.76571,0.74156 0.53031,0 1.75581,0.67332 2.40243,1.31996 0.46086,0.46085 0.87423,0.52711 2.48286,0.39798 1.06149,-0.0852 2.0142,-0.28713 2.11716,-0.44873 0.10293,-0.16161 0.62226,-0.38821 1.15404,-0.50357 1.51413,-0.32845 2.74368,-1.67742 3.0657,-3.36343 0.15255,-0.79872 0.63378,-2.22846 1.06938,-3.17721 0.63498,-1.38292 0.93639,-1.73094 1.52004,-1.755 0.40041,-0.0165 1.09926,-0.044 1.55301,-0.061 0.61647,-0.0232 0.92391,0.17396 1.21638,0.78 0.33711,0.69863 0.57375,0.81103 1.70727,0.81103 0.72378,0 1.39938,-0.135 1.50135,-0.3 0.10197,-0.165 0.50049,-0.3 0.8856,-0.3 0.38511,0 0.7779,-0.2025 0.87288,-0.45 0.19167,-0.49947 1.09152,-0.62313 1.09152,-0.15 0,0.46286 1.08111,0.35475 1.5,-0.15 0.2487,-0.29966 0.92181,-0.45 2.01483,-0.45 1.37889,0 1.66596,-0.0942 1.79538,-0.58907 0.0847,-0.324 0.54459,-0.76195 1.02192,-0.97324 0.47733,-0.21128 0.86787,-0.53517 0.86787,-0.71973 0,-0.33715 3.5292,-2.21796 4.16181,-2.21796 0.186,0 0.33819,-0.1057 0.33819,-0.2349 0,-0.32092 1.16835,-0.21681 2.19453,0.19554 0.46449,0.18665 1.09536,0.33936 1.40193,0.33936 0.7821,0 2.31684,-1.62231 2.55333,-2.69902 0.10884,-0.49554 0.3576,-0.90098 0.55278,-0.90098 0.19521,0 0.60936,-0.88839 0.92031,-1.9742 0.42006,-1.46677 0.73659,-2.0393 1.23147,-2.22745 0.36633,-0.13928 1.04118,-0.60089 1.49967,-1.02579 0.45846,-0.42491 1.08387,-0.77256 1.38978,-0.77256 0.30591,0 0.55827,-0.16875 0.56079,-0.375 0.004,-0.28111 0.068,-0.27493 0.25797,0.0247 0.18684,0.29474 0.63861,0.34388 1.72041,0.18716 0.80685,-0.11689 1.61079,-0.32629 1.7865,-0.46533 0.46362,-0.36687 2.55582,-0.11601 2.83779,0.34025 0.19323,0.31266 0.43467,0.29444 1.2351,-0.0932 0.66084,-0.32006 1.06002,-0.3765 1.18881,-0.16809 0.30504,0.49357 1.53957,-0.0314 1.42125,-0.60437 -0.0593,-0.28726 0.56058,-1.166951 1.47258,-2.089769 l 2.83205,-1.593485 0,41.568684 0,44.0827 -385.25708,0 -386.5141574,0 z"
     id="path5074" />
</svg>
