<?xml version="1.0" encoding="UTF-8" standalone="no"?>
<svg
   xmlns:dc="http://purl.org/dc/elements/1.1/"
   xmlns:cc="http://creativecommons.org/ns#"
   xmlns:rdf="http://www.w3.org/1999/02/22-rdf-syntax-ns#"
   xmlns:svg="http://www.w3.org/2000/svg"
   xmlns="http://www.w3.org/2000/svg"
   viewBox="0 0 69.20485 98.468745"
   height="98.468742"
   width="69.204849"
   version="1.1"
   id="svg4543">
  <metadata
     id="metadata4549">
    <rdf:RDF>
      <cc:Work
         rdf:about="">
        <dc:format>image/svg+xml</dc:format>
        <dc:type
           rdf:resource="http://purl.org/dc/dcmitype/StillImage" />
        <dc:title></dc:title>
      </cc:Work>
    </rdf:RDF>
  </metadata>
  <defs
     id="defs4547" />
  <path
     id="path4773"
     d="m 20.212861,98.380018 -2.64199,-0.106575 0.189942,-2.163072 c 0.181691,-2.069097 1.386353,-6.193977 2.069702,-7.086858 0.242881,-0.317355 0.211321,-0.46164 -0.125663,-0.574509 -0.655194,-0.21945 -2.1,-1.841085 -2.1,-2.357016 0,-0.243021 0.785196,-1.409994 1.744881,-2.593272 2.433781,-3.000822 5.159327,-6.745419 5.347487,-7.346853 0.113877,-0.363996 -0.0059,-0.32007 -0.430015,0.15768 -0.861124,0.970068 -1.057499,0.467244 -0.305898,-0.783267 l 0.648503,-1.078977 -0.801296,0.726183 c -0.440713,0.399402 -0.855554,0.669402 -0.921869,0.6 -0.06632,-0.0694 0.417577,-1.318008 1.075314,-2.774685 0.657738,-1.456677 1.133365,-2.711025 1.056948,-2.787441 -0.07642,-0.07642 -1.086463,1.253067 -2.244548,2.954406 -2.421005,3.556692 -4.31646,5.631537 -5.144638,5.631537 -0.316688,0 -0.823088,0.08833 -1.125333,0.196281 -0.406632,0.145239 -0.334999,-0.03456 0.275464,-0.691416 0.901221,-0.969711 1.08532,-1.904865 0.375,-1.904865 -0.2475,0 -0.450001,-0.160803 -0.450001,-0.357339 0,-0.196536 -0.191462,-0.0955 -0.425471,0.224529 -0.792605,1.083951 -0.842155,0.178482 -0.07792,-1.423857 0.417969,-0.876333 0.632461,-1.639086 0.476649,-1.695006 -0.155812,-0.05592 -0.761253,0.18033 -1.345425,0.525 -1.404845,0.828879 -1.488487,0.79491 -0.715535,-0.290601 0.93608,-1.314603 0.464959,-1.471938 -0.785193,-0.262221 -0.591985,0.572838 -0.974971,0.79662 -0.86341,0.504495 0.127737,-0.334479 0.0582,-0.525 -0.1916,-0.525 -0.304964,0 -0.312097,-0.08 -0.0321,-0.36 0.466152,-0.466152 0.46688,-0.941466 9.9e-4,-0.653535 -0.19745,0.122031 -0.04772,-0.215274 0.332728,-0.749568 0.997865,-1.401372 0.581382,-1.463328 -0.908988,-0.135219 -1.282251,1.142649 -1.285274,1.143546 -0.611969,0.181353 0.372156,-0.531831 1.284151,-1.464771 2.026656,-2.073198 0.864565,-0.708447 1.225704,-1.183056 1.004318,-1.31988 -0.260228,-0.16083 -0.258253,-0.377031 0.008,-0.874509 0.322855,-0.603261 0.302844,-0.633654 -0.229582,-0.348708 -0.320795,0.171684 -0.646411,0.249006 -0.723592,0.171825 -0.211621,-0.21162 -3.436659,2.93052 -3.6492554,3.555453 -0.101788,0.299208 -0.322164,0.459285 -0.489725,0.355728 -0.167561,-0.10356 -0.429957,0.124134 -0.583103,0.505986 -0.251693,0.627567 -0.281191,0.636624 -0.307011,0.09427 -0.02252,-0.473004 -0.345275,-0.250761 -1.5248791,1.05 -0.8229732,0.9075 -1.689288,2.08875 -1.9251435,2.625 -0.2358558,0.53625 -0.5727015,0.975 -0.7485462,0.975 -0.4530306,0 -1.5084382,1.822626 -1.5097771,2.607294 -0.00183,1.073091 -0.5578422,1.091907 -0.8391489,0.02841 l -0.260718,-0.985702 -0.6831714,1.326846 c -0.49572559,0.96279 -0.64091959,1.641855 -0.52917919,2.474943 0.084696,0.631452 0.048982,1.212996 -0.079364,1.292319 -0.3422033,0.211494 -0.660403,-3.145896 -0.4433171,-4.677534 C 0.39243321,75.8965 1.395389,73.205761 2.651834,71.240167 c 1.3958014,-2.183607 7.405525,-8.189754 14.7207,-14.711943 6.307829,-5.624043 8.371488,-7.879977 9.816321,-10.730925 1.571125,-3.100146 2.783782,-6.584811 2.638726,-7.582581 -0.09251,-0.636336 0.109395,-1.05789 0.856593,-1.788471 0.986685,-0.96474 1.062567,-1.428948 0.233586,-1.428948 -0.248424,0 -1.120512,-0.287724 -1.937973,-0.639387 -1.519305,-0.653586 -1.675313,-0.861636 -5.023093,-6.698695 -0.09087,-0.158445 0.366536,0.03447 1.016466,0.428695 1.971717,1.195979 6.207154,3.309387 6.632278,3.309387 0.256473,0 0.399414,-0.375771 0.399414,-1.05 0,-1.206058 -0.512112,-1.375855 -1.351665,-0.448161 -0.669057,0.739302 -0.918336,0.576366 -0.451824,-0.295322 0.262131,-0.489794 0.259143,-0.748473 -0.01242,-1.075694 -0.28983,-0.349216 -0.24747,-0.430823 0.223611,-0.430823 0.368823,0 0.764121,-0.383651 1.081881,-1.05 0.576528,-1.208993 0.337743,-1.322488 -0.83748,-0.398056 l -0.828813,0.651944 0.369567,-0.69054 c 0.203259,-0.379796 1.071909,-1.415671 1.930332,-2.301944 1.126812,-1.163368 1.785432,-1.611404 2.368791,-1.611404 0.895284,0 1.082397,-0.430519 0.315081,-0.724965 -0.271116,-0.104037 -0.427173,-0.254922 -0.346797,-0.3353 0.08038,-0.08038 0.73494,0.0616 1.454583,0.315503 0.719643,0.253905 1.4832,0.394583 1.696797,0.312619 0.216633,-0.08313 0.388356,0.06017 0.388356,0.324081 0,0.351085 0.187839,0.425962 0.728301,0.290315 0.729984,-0.183215 1.671699,0.420262 1.671699,1.071272 0,0.170868 0.197928,0.234717 0.439836,0.141887 0.351858,-0.13502 0.401745,0.02359 0.249405,0.792903 -0.174033,0.878856 -0.146472,0.925521 0.319983,0.541803 0.419301,-0.34493 0.475683,-0.726861 0.315855,-2.139561 -0.119169,-1.053301 -0.06838,-1.936848 0.131058,-2.280117 0.296004,-0.509469 0.326448,-0.490869 0.33474,0.20451 0.0084,0.707788 1.429617,3.28505 1.811472,3.28505 0.09256,0 0.40143,-0.39468 0.686382,-0.877067 0.499449,-0.845496 0.494445,-0.917153 -0.139002,-1.990766 -1.00116,-1.696838 -0.93654,-4.254705 0.169734,-6.718757 1.061775,-2.364932 1.426029,-5.7233254 0.709851,-6.5447446 -0.947427,-1.086648 -1.173435,-1.8271398 -0.776364,-2.5436652 0.236505,-0.4267791 0.342531,-1.5735795 0.288321,-3.1185529 -0.08833,-2.51722501 0.24495,-3.35330595 0.870645,-2.18417979 0.188112,0.35148975 0.271236,0.90975919 0.184719,1.24059889 -0.08652,0.3308397 -0.04529,0.89613 0.09161,1.2562008 0.196512,0.516864 0.476475,0.6471231 1.32999,0.6188031 1.679727,-0.055733 2.053893,0.5645859 1.649787,2.735121 -0.186977,1.0042566 -0.25208,2.8859049 -0.149714,4.3270087 0.544782,7.669562 0.548922,8.239269 0.07307,10.057914 -0.420858,1.608477 -0.424413,1.969496 -0.03221,3.272679 0.523842,1.740599 0.565797,3.732689 0.110607,5.251974 -0.306345,1.022493 -0.239565,1.272294 0.923676,3.455148 0.68964,1.294131 1.86852,4.188813 2.619729,6.432627 1.443199,4.310736 3.515719,8.779884 4.88302,10.529658 0.451266,0.5775 1.46727,2.3325 2.257782,3.9 0.790515,1.5675 2.06694,3.795 2.836497,4.95 0.76956,1.155 2.571522,4.366035 4.004361,7.135632 l 2.605158,5.035632 0,2.615322 c 0,3.057294 -0.687306,5.797176 -2.235948,8.913414 -0.971022,1.953924 -3.808434,5.55 -4.379118,5.55 -0.138456,0 0.07843,-0.721182 0.481965,-1.602624 0.903156,-1.972755 0.984015,-3.477192 0.303222,-5.641617 -0.476325,-1.514361 -0.482787,-1.783521 -0.07164,-2.985099 0.524007,-1.531413 0.263904,-2.032083 -0.803115,-1.545918 -0.607662,0.27687 -0.714972,0.249672 -0.683136,-0.173139 0.02106,-0.279708 -0.144402,-0.462999 -0.374037,-0.414336 -0.290187,0.0615 -0.344106,-0.0714 -0.182571,-0.45 0.680061,-1.593903 0.545187,-2.086359 -0.773472,-2.824098 -1.360338,-0.761055 -1.747209,-1.652643 -2.241675,-5.166168 -0.139626,-0.992142 -0.301998,-1.355481 -0.511935,-1.145544 -0.182709,0.182709 -0.321873,2.366385 -0.342996,5.382063 -0.03247,4.635231 -0.07841,5.047986 -0.530613,4.767078 -0.27228,-0.169146 -0.426588,-0.485976 -0.342897,-0.704067 0.09296,-0.242259 -0.06779,-0.396531 -0.413181,-0.396531 -0.900462,0 -1.763385,-0.764736 -3.566899,-3.161043 -0.926799,-1.231428 -1.737165,-2.238957 -1.800816,-2.238957 -0.06365,0 -0.330615,0.415545 -0.593253,0.92343 -0.450294,0.870774 -0.435438,1.046121 0.260517,3.075 1.281375,3.735531 1.837827,6.006162 1.499538,6.118923 -1.17996,0.393321 -1.227282,0.678681 -0.751737,4.533192 0.521829,4.229676 0.611961,4.022826 -1.989873,4.566645 -0.876522,0.183207 -2.294022,0.649179 -3.15,1.035495 -0.855981,0.386313 -2.332578,0.795555 -3.281328,0.90942 l -1.725,0.20703 0,-1.592307 c 0,-0.875769 0.226896,-2.8626 0.504216,-4.415184 0.382425,-2.141031 0.426225,-3.029493 0.181332,-3.678288 -0.285483,-0.75633 -0.239637,-0.909954 0.395784,-1.3263 0.665319,-0.435933 0.718668,-0.660987 0.718668,-3.031677 0,-2.623767 -0.371898,-3.17229 -0.711387,-1.049244 -0.223809,1.39962 -0.788613,1.933635 -0.788613,0.745623 0,-0.44751 -0.405,-1.670835 -0.9,-2.718507 -0.495,-1.047669 -0.9,-2.174493 -0.9,-2.504052 0,-0.329559 -0.142968,-0.599199 -0.317706,-0.599199 -0.174738,0 -0.221613,-0.155481 -0.104166,-0.34551 0.117444,-0.190032 -0.02544,-0.520257 -0.317526,-0.733833 -0.693087,-0.506799 -1.856385,0.206388 -2.472228,1.515663 -0.236373,0.502524 -0.624642,1.273086 -0.862824,1.712358 -0.238182,0.439272 -0.473874,1.582005 -0.523761,2.539404 -0.08206,1.574757 -0.0097,1.819854 0.758256,2.570613 l 0.848961,0.829887 -1.042287,0.680709 c -0.573258,0.374391 -1.081536,0.931062 -1.129503,1.23705 -0.09444,0.602427 -2.557491,2.137317 -3.943254,2.4573 -0.707964,0.163476 -1.027884,0.574758 -1.849518,2.377716 -0.783891,1.720137 -1.066146,2.868702 -1.337923,5.444346 -0.189443,1.795365 -0.507196,4.209297 -0.706118,5.364297 l -0.361675,2.1 -1.644364,0.01965 c -0.904401,0.0108 -2.83326,-0.02832 -4.286355,-0.08693 z M 13.704851,72.46189 c 0,-0.165 -0.135,-0.216567 -0.3,-0.114591 -0.165,0.101976 -0.3,0.320409 -0.3,0.485409 0,0.165 0.135,0.216567 0.3,0.114591 0.165,-0.101976 0.3,-0.320409 0.3,-0.485409 z m 28.800001,-2.364591 c 0,-0.333333 -0.200001,-0.6 -0.45,-0.6 -0.249999,0 -0.45,0.266667 -0.45,0.6 0,0.333333 0.200001,0.6 0.45,0.6 0.249999,0 0.45,-0.266667 0.45,-0.6 z m -22.13329,-5.145363 c 0.458309,-0.437451 0.83329,-0.928173 0.83329,-1.090497 0,-0.162324 0.353645,-0.526851 0.785878,-0.81006 0.980473,-0.642432 2.691166,-2.575377 2.585071,-2.920923 -0.04348,-0.141606 0.06252,-0.521994 0.235555,-0.84531 0.369809,-0.690996 -0.06535,-0.789897 -0.606504,-0.137847 -0.205407,0.2475 -0.594567,0.45 -0.864799,0.45 -0.270233,0 -0.887303,0.367164 -1.371267,0.815922 -0.483964,0.448755 -1.063046,0.842796 -1.286848,0.875643 -0.749432,0.109992 -1.277086,0.774552 -1.277086,1.608435 0,0.454593 -0.2025,0.994593 -0.45,1.2 -0.2475,0.205407 -0.45,0.538512 -0.45,0.740238 0,0.201723 -0.271093,0.612105 -0.602429,0.911961 -0.571813,0.517482 -0.576167,0.574209 -0.08567,1.116201 0.504571,0.557544 0.530966,0.551088 1.119139,-0.273693 0.331309,-0.464589 0.977361,-1.202619 1.43567,-1.64007 z m 14.33329,-32.917905 c 0,-0.144795 -0.190482,-0.42135 -0.423291,-0.614565 -0.470124,-0.390168 -0.950967,0.05317 -0.626709,0.577833 0.228468,0.369666 1.05,0.398409 1.05,0.03673 z m 6.142206,-1.60407 c 0.251787,-0.847859 0.450684,-1.75331 0.441996,-2.012112 -0.02489,-0.741385 -1.484202,2.407983 -1.484202,3.203085 0,1.11768 0.53979,0.500841 1.042206,-1.190973 z"
     style="fill:#000000" />
  <path
     id="path4775"
     d="m 28.175776,26.156867 7.248366,0.783607 5.534226,-5.48525 -3.33033,6.807587 -1.910043,-0.587705 -1.224386,1.567214 z"
     style="fill:#ff0000;fill-opacity:0.61464963;fill-rule:evenodd;stroke:none;stroke-width:1px;stroke-linecap:butt;stroke-linejoin:miter;stroke-opacity:1" />
</svg>
