<?xml version="1.0" encoding="UTF-8" standalone="no"?>
<svg
   xmlns:dc="http://purl.org/dc/elements/1.1/"
   xmlns:cc="http://creativecommons.org/ns#"
   xmlns:rdf="http://www.w3.org/1999/02/22-rdf-syntax-ns#"
   xmlns:svg="http://www.w3.org/2000/svg"
   xmlns="http://www.w3.org/2000/svg"
   viewBox="0 0 473.79477 466.25497"
   height="466.25497"
   width="473.79477"
   id="svg4485"
   version="1.1">
  <metadata
     id="metadata4491">
    <rdf:RDF>
      <cc:Work
         rdf:about="">
        <dc:format>image/svg+xml</dc:format>
        <dc:type
           rdf:resource="http://purl.org/dc/dcmitype/StillImage" />
        <dc:title></dc:title>
      </cc:Work>
    </rdf:RDF>
  </metadata>
  <defs
     id="defs4489" />
  <path
     id="path4495"
     d="m 460.54675,464.13986 c -3.66667,-1.05949 -9.96667,-2.46173 -14,-3.11608 -15.49375,-2.51367 -39.38044,-9.57047 -44.53755,-13.15765 -14.54973,-10.12052 -20.39015,-13.5693 -23.02007,-13.59343 -6.69521,-0.0615 -9.17904,-3.3154 -5.10905,-6.69319 2.52117,-2.09238 2.50208,-6.55738 -0.0424,-9.9215 -1.07668,-1.4235 -1.9576,-4.81964 -1.9576,-7.547 0,-4.60174 -10.03109,-29.19816 -11.90781,-29.19816 -1.06507,0 -3.60232,6.15529 -5.43624,13.18817 -0.83971,3.22016 -2.89652,8.02016 -4.57068,10.66667 -3.19122,5.04461 -14.53742,16.14516 -16.50247,16.14516 -0.62889,0 -4.00647,2.82258 -7.50571,6.2724 l -6.36228,6.2724 -8.8574,-2.44156 c -13.15992,-3.62755 -20.59696,-4.56482 -37.07637,-4.67258 -13.6562,-0.0893 -15.89099,-0.481 -27.05831,-4.7426 -6.69498,-2.5549 -15.84266,-5.59626 -20.32818,-6.75857 -12.20323,-3.16217 -37.89495,-3.88696 -53.06122,-1.49691 l -12.66666,1.99615 -4.80796,-3.26261 c -8.12204,-5.51152 -11.07506,-14.4459 -9.06234,-27.4182 1.20371,-7.75802 1.06759,-10.04702 -0.91745,-15.42871 -3.30481,-8.9598 -5.08172,-10.5432 -12.93711,-11.52828 -5.87549,-0.7368 -21.57421,-4.78231 -45.608481,-11.75315 -7.91997,-2.29708 -37.31058,-17.14425 -47.999997,-24.24802 -14.288633,-9.49567 -30.6087659,-29.4139 -36.6987959,-44.78976 -2.543281,-6.42118 -2.827262,-9.15764 -2.283089,-22 0.726063,-17.1349 4.864216,-30.03714 15.3951189,-48 l 6.253433,-10.66667 0.426948,-18.71024 c 0.469441,-20.57243 -0.935587,-29.16163 -6.924552,-42.33105 -3.087228,-6.78866 -3.249379,-7.80616 -1.359565,-8.53135 7.331557,-2.81339 32.953592,12.38763 43.266879,25.66932 12.74132,16.40856 17.25696,30.13576 17.25696,52.45981 0,5.66002 0.61748,8.23972 2.33333,9.74818 9.35576,8.22492 28.505881,11.4363 39.416591,6.60998 9.20241,-4.07066 19.91874,-14.83562 24.1463,-24.25588 3.66468,-8.16598 6.55778,-22.4636 8.09235,-39.9921 1.11609,-12.74854 7.71493,-38.18794 12.20327,-47.04524 4.89106,-9.65206 11.81594,-17.534395 21.49696,-24.469165 10.54722,-7.55528 19.00034,-11.24938 34.97786,-15.28569 10.97067,-2.77146 15.61236,-3.18482 34.66667,-3.0872 18.40995,0.0943 23.84941,0.60649 33.33333,3.13867 21.00794,5.60906 18.8481,6.32895 26.44782,-8.81527 8.23136,-16.402889 9.81472,-26.472408 6.0437,-38.435448 -2.96098,-9.393316 -7.09109,-13.6495595 -17.3574,-17.8874995 -10.41509,-4.29935901 -11.84914,-5.79540501 -4.46745,-4.66060001 16.24003,2.49662001 31.49247,15.94477651 35.46849,31.27276751 1.42723,5.502107 1.41198,8.569836 -0.0877,17.634423 -2.26715,13.703567 -4.55284,19.068167 -10.60991,24.901797 -2.624,2.52719 -4.77089,5.2726 -4.77089,6.10092 0,0.82831 1.57091,2.96061 3.49089,4.73845 6.28696,5.82145 14.77066,20.352215 18.47979,31.651935 l 3.63905,11.08619 -1.52193,20.91381 c -3.11595,42.81813 -4.28908,56.9876 -4.94547,59.73309 -0.86656,3.62456 1.16239,4.34956 9.83916,3.51583 5.89994,-0.56691 7.45915,-1.32777 10.26827,-5.01072 4.29541,-5.63157 8.72148,-6.65777 16.94072,-3.92779 5.25779,1.74636 8.08515,1.92458 14.09799,0.88864 9.11076,-1.56966 14.13464,-0.32377 19.62508,4.8669 2.24754,2.12484 6.32501,4.2599 9.06104,4.74458 3.51277,0.62228 6.00561,2.23299 8.48316,5.48122 2.25106,2.95129 5.35346,5.09674 8.65601,5.98602 3.35128,0.90242 6.41048,3.04199 8.76701,6.13158 3.53384,4.63309 3.58391,4.95373 2.11379,13.53625 -1.8304,10.68579 -5.05521,15.48211 -10.79305,16.05269 -3.52812,0.35084 -4.20151,0.97316 -4.20151,3.88286 0,5.23317 -5.58825,13.7059 -13.36464,20.26305 l -6.95936,5.86821 0.88481,8.78404 c 1.66591,16.53856 9.31102,52.61854 15.81103,74.61788 2.54945,8.62867 3.4522,10.09454 7.36604,11.96092 3.70261,1.76566 4.34921,2.70007 3.80557,5.49948 -0.3941,2.02936 0.40002,5.08815 1.99402,7.68062 2.4401,3.96852 2.48392,4.54381 0.55574,7.29666 -3.0168,4.3071 -2.69392,5.89555 3.22268,15.85467 5.01566,8.4426 5.74527,9.08303 12.9183,11.33921 13.90728,4.37438 21.95761,15.25238 19.11105,25.82372 -1.08056,4.0129 -3.99061,7.34191 -5.78763,6.62088 -0.12333,-0.0495 -3.22428,-0.95685 -6.89094,-2.01633 z"
     style="fill:#000000;stroke-width:1.33333337" />
</svg>
