<?xml version="1.0" encoding="UTF-8" standalone="no"?>
<svg
   xmlns:dc="http://purl.org/dc/elements/1.1/"
   xmlns:cc="http://creativecommons.org/ns#"
   xmlns:rdf="http://www.w3.org/1999/02/22-rdf-syntax-ns#"
   xmlns:svg="http://www.w3.org/2000/svg"
   xmlns="http://www.w3.org/2000/svg"
   viewBox="0 0 28.095674 81.18853"
   height="81.18853"
   width="28.095675"
   version="1.1"
   id="svg5283">
  <metadata
     id="metadata5289">
    <rdf:RDF>
      <cc:Work
         rdf:about="">
        <dc:format>image/svg+xml</dc:format>
        <dc:type
           rdf:resource="http://purl.org/dc/dcmitype/StillImage" />
        <dc:title></dc:title>
      </cc:Work>
    </rdf:RDF>
  </metadata>
  <defs
     id="defs5287" />
  <path
     id="path5835"
     d="M 6.7179706,80.762758 C 4.8503048,80.28637 4.8421652,80.27962 5.2976474,79.584466 5.6685872,79.018339 5.6858413,78.773356 5.3883269,78.296959 5.0892077,77.817994 5.1162248,77.508715 5.5336502,76.633363 6.1704799,75.297919 6.1724737,75.015022 5.5499042,74.327092 5.0977859,73.827508 5.0955914,73.731544 5.5253522,73.25347 5.941075,72.791014 5.9988517,70.923657 6.0103435,57.578469 6.0175195,49.245969 6.1107538,41.726666 6.2175325,40.868906 6.4077829,39.34061 6.3914743,39.297029 5.404037,38.695028 4.8498362,38.357153 4.3121978,38.080205 4.2092849,38.07959 c -0.22788,-0.0015 -1.9391228,5.122876 -2.2165742,6.637435 -0.1360296,0.742563 -0.047957,1.381437 0.2770899,2.010009 0.6452501,1.247775 1.1730191,3.826425 0.9582701,4.682052 -0.2599569,1.03575 -1.2951911,1.173636 -2.24051057,0.298419 -0.6995901,-0.647712 -0.8085194,-1.018746 -0.9411585,-3.205764 -0.0825,-1.360299 -0.0520039,-3.553272 0.0677691,-4.873272 0.2660151,-2.931712 0.5982939,-8.997484 0.5546409,-10.125001 -0.017568,-0.45375 0.090923,-0.825 0.2410887,-0.825 0.15016617,0 0.27246507,-0.30375 0.27177567,-0.675 -0.00153,-0.825486 0.2921367,-3.605897 0.6574911,-6.225 0.1496097,-1.0725 0.3540585,-2.889141 0.4543308,-4.03698 C 2.3937701,20.59365 2.6180132,19.483166 2.7918158,19.273747 2.9656184,19.064328 3.802751,18.557694 4.652111,18.147895 6.8826373,17.071711 7.7183057,16.4098 7.7066587,15.728468 c -0.0076,-0.447361 -0.277376,-0.647193 -1.0602573,-0.785508 -1.0491605,-0.185359 -1.0492805,-0.185568 -0.15,-0.260526 0.495,-0.04126 1.0265623,-0.0506 1.1812503,-0.02074 0.154687,0.02985 0.660937,0.130213 1.125,0.223026 0.813004,0.1626 0.84375,0.124825 0.84375,-1.036654 0,-0.794722 -0.153315,-1.264236 -0.45,-1.378084 -0.2475,-0.09497 -0.45,-0.0222 -0.45,0.16171 0,0.318817 -0.386032,-0.05295 -2.1210495,-2.042682 C 5.9882854,9.8584145 5.9014021,9.5634647 6.1253521,8.8916147 6.2744293,8.4443834 6.5281186,8.0784668 6.6891064,8.0784668 c 0.1609878,0 0.2241471,-0.1109295 0.1403535,-0.24651 -0.083793,-0.1355805 0.043239,-0.6235122 0.2822949,-1.0842922 0.2390559,-0.4607802 0.4367139,-1.1936007 0.4392409,-1.62849 0.00361,-0.6207012 0.06712,-0.6939552 0.295406,-0.3407079 0.235162,0.3638877 0.291691,0.3208314 0.295406,-0.225 0.00253,-0.3712501 0.139594,-0.6750001 0.304594,-0.6750001 0.165,0 0.3,-0.2779674 0.3,-0.6177051 0,-0.3513029 0.134577,-0.534532 0.312042,-0.4248521 0.171624,0.1060691 0.58159,-0.1498209 0.911037,-0.5686444 0.3379133,-0.4295869 0.7845083,-0.6903089 1.0246163,-0.5981706 0.234093,0.08983 0.75174,-0.1525631 1.150327,-0.5386506 0.398588,-0.38608746 0.843341,-0.72093235 0.988341,-0.74409971 0.145,-0.0231675 0.733488,-0.14197484 1.307751,-0.26401664 0.961867,-0.20441502 1.010558,-0.18146188 0.61813,0.2913852 -0.392807,0.47330371 -0.339522,0.49705897 0.684174,0.30501247 0.693508,-0.1301029 1.265961,-0.0789623 1.525292,0.13626324 0.228323,0.18949154 0.530593,0.32380664 0.671711,0.29847784 0.635013,-0.1139763 1.024598,0.053138 0.835849,0.3585414 -0.113377,0.1834476 -0.02009,0.4513803 0.207295,0.5954062 0.299387,0.1896289 0.30999,0.2631323 0.03843,0.2664589 -0.20625,0.00253 -0.375,0.2070939 -0.375,0.4545939 0,0.2475 0.137572,0.45 0.305716,0.45 0.18107,0 0.224191,0.3248193 0.105762,0.7966773 -0.144029,0.5738587 -0.05593,0.9019888 0.314989,1.1732125 0.477013,0.3488001 0.468299,0.3913389 -0.118299,0.577518 -0.457052,0.1450626 -0.582393,0.3611919 -0.450488,0.7767876 0.100514,0.3166926 0.06738,0.5758048 -0.07362,0.5758048 -0.141006,0 -0.278341,0.291603 -0.305188,0.6480069 -0.02685,0.3564036 -0.202106,0.7427472 -0.389464,0.8585409 -0.187359,0.115794 -0.320407,0.2629407 -0.295664,0.3269931 0.111673,0.2890788 -0.389012,1.1664593 -0.665647,1.1664593 -0.514777,0 -1.42964,1.252023 -1.40362,1.920903 0.01953,0.502083 0.108668,0.436882 0.44149,-0.322938 0.620985,-1.417687 0.896592,-1.398364 0.780891,0.05475 -0.07861,0.987296 0.06411,1.533532 0.6,2.296365 0.928385,1.321548 0.95023,1.33395 3.071497,1.743869 1.007407,0.194674 2.133663,0.547875 2.50279,0.784891 0.931567,0.598156 1.877957,2.575492 1.883465,3.935211 0.0025,0.625324 0.292488,2.216952 0.644343,3.536952 0.351856,1.32 0.723878,3.2775 0.826716,4.35 0.103085,1.075076 0.423971,2.303055 0.715179,2.736876 0.29051,0.43278 0.656336,1.574166 0.812945,2.536407 0.230661,1.41723 0.197478,1.882716 -0.174693,2.450727 -0.380952,0.581406 -0.422088,1.301217 -0.240801,4.21359 0.499926,8.031193 0.127734,9.428533 -2.626989,9.862684 -1.059933,0.167046 -1.09763,-0.1866 -0.111306,-1.044198 0.589832,-0.512853 0.75,-0.937062 0.75,-1.986396 0,-2.258409 -0.809287,-1.952076 -1.334953,0.505311 -0.09706,0.45375 -0.328822,0.825 -0.51502,0.825 -0.478463,0 -0.06781,-4.951989 0.506045,-6.102307 0.538595,-1.07964 0.556326,-1.868841 0.08184,-3.642876 -0.225085,-0.841572 -0.572113,-1.420455 -0.917185,-1.529976 -0.789647,-0.250626 -1.116352,-1.336947 -1.290988,-4.292637 -0.165608,-2.802888 -0.609858,-4.622166 -1.089636,-4.46224 -0.483857,0.161285 -1.165048,2.353672 -1.211698,3.899797 -0.03251,1.077303 0.111992,1.58457 0.599056,2.103027 0.674468,0.717939 2.172536,3.855492 2.172536,4.550157 0,0.319794 -0.906206,1.149801 -2.33614,2.139702 -0.127276,0.08811 2.292185,10.102093 3.113691,12.887353 0.473785,1.606335 0.690363,3.044853 0.654921,4.35 -0.0365,1.344246 0.105549,2.248248 0.457287,2.910102 0.299623,0.56379 0.510241,1.631862 0.510241,2.5875 0,2.407278 0.269388,3.360951 1.260368,4.461894 0.490362,0.544779 1.078054,1.346679 1.305982,1.782003 0.397956,0.760071 0.36849,0.821892 -0.742016,1.556791 -1.438482,0.951942 -3.307687,1.74741 -3.633266,1.546191 -0.134855,-0.08335 -0.472,-0.858699 -0.74921,-1.723008 -0.277211,-0.86431 -1.114355,-3.191473 -1.860322,-5.171473 -1.26064,-3.346083 -1.360747,-3.822177 -1.419304,-6.75 -0.06919,-3.45954 -0.449668,-5.032326 -1.584917,-6.551598 -0.411634,-0.550881 -0.989043,-1.765881 -1.283132,-2.7 -0.775132,-2.462076 -2.137022,-6.163764 -2.358641,-6.41091 -0.580292,-0.647136 -0.978733,0.498369 -1.230456,3.537525 -0.254458,3.072165 -0.794241,6.159891 -1.482578,8.480814 -0.214718,0.723984 -0.19052,1.318695 0.08636,2.122332 0.305158,0.885729 0.308529,1.235898 0.01631,1.694169 -0.293485,0.460251 -0.278183,1.179042 0.07529,3.536304 0.419024,2.794446 0.4065,3.227313 -0.225681,7.8 -0.368129,2.662753 -0.681802,5.988865 -0.697051,7.391365 l -0.02773,2.55 -0.9000003,0.05671 c -0.495,0.03119 -1.745293,-0.158901 -2.7784304,-0.422424 z"
     style="fill:#000000" />
</svg>
