<?xml version="1.0" encoding="UTF-8" standalone="no"?>
<svg
   xmlns:dc="http://purl.org/dc/elements/1.1/"
   xmlns:cc="http://creativecommons.org/ns#"
   xmlns:rdf="http://www.w3.org/1999/02/22-rdf-syntax-ns#"
   xmlns:svg="http://www.w3.org/2000/svg"
   xmlns="http://www.w3.org/2000/svg"
   xmlns:sodipodi="http://sodipodi.sourceforge.net/DTD/sodipodi-0.dtd"
   xmlns:inkscape="http://www.inkscape.org/namespaces/inkscape"
   version="1.1"
   id="Layer_1"
   x="0px"
   y="0px"
   width="800"
   height="600"
   viewBox="0 0 799.99999 600"
   enable-background="new 0 0 864 864"
   xml:space="preserve"
   sodipodi:docname="viking.svg"
   inkscape:version="1.0.1 (3bc2e813f5, 2020-09-07)"><sodipodi:namedview
   pagecolor="#ffffff"
   bordercolor="#666666"
   borderopacity="1"
   objecttolerance="10"
   gridtolerance="10"
   guidetolerance="10"
   inkscape:pageopacity="0"
   inkscape:pageshadow="2"
   inkscape:window-width="1847"
   inkscape:window-height="944"
   id="namedview6"
   showgrid="false"
   inkscape:zoom="0.76464856"
   inkscape:cx="305.21062"
   inkscape:cy="160.55534"
   inkscape:window-x="0"
   inkscape:window-y="0"
   inkscape:window-maximized="0"
   inkscape:current-layer="Layer_1" /><metadata
   id="metadata21"><rdf:RDF><cc:Work
       rdf:about=""><dc:format>image/svg+xml</dc:format><dc:type
         rdf:resource="http://purl.org/dc/dcmitype/StillImage" /><dc:title></dc:title></cc:Work></rdf:RDF></metadata><defs
   id="defs19">
	
	
	
	
	
	
</defs>
<path
   style="fill:#000000;fill-opacity:1;stroke-width:2.36899"
   d="m 364.96124,531.268 c -64.07448,13.09408 -118.16795,11.82703 -134.15242,-3.14231 -9.25573,-8.66799 -12.67903,-51.71994 -4.56918,-57.46286 1.14809,-0.813 1.6188,-6.48223 1.04606,-12.59822 -0.92074,-9.83179 -1.88568,-11.61935 -8.32945,-15.43036 -4.00845,-2.37069 -7.64249,-5.85347 -8.07566,-7.7395 -0.43767,-1.90571 -7.0884,-4.40272 -14.97031,-5.6206 -33.98893,-5.25182 -77.98217,-24.79579 -99.946113,-44.40101 -25.568583,-22.82277 -38.660132,-46.7643 -47.466973,-86.80655 -7.372053,-33.51872 -7.835985,-58.61881 -1.597133,-86.40967 8.482968,-37.78725 40.204006,-77.04034 76.509699,-94.67665 12.46512,-6.05523 12.03549,-1.04612 -0.89898,10.48128 -34.485404,30.7339 -47.546895,73.36058 -37.022473,120.82426 7.917195,35.70545 24.467233,59.61927 52.897443,76.43363 10.00994,5.92016 23.88543,11.46919 33.30249,13.31825 19.44881,3.81881 57.50856,2.84321 63.46543,-1.62683 2.3028,-1.72802 6.65166,-2.76592 9.6641,-2.30642 4.72588,0.72081 6.92585,-1.442 16.03839,-15.76738 12.85732,-20.21241 27.64752,-36.47604 45.9819,-50.56266 12.29248,-9.44455 17.01782,-11.57754 43.09592,-19.45329 26.07806,-7.87577 31.10662,-8.68853 45.86133,-7.41239 22.00679,1.90331 41.86431,7.70308 61.73587,18.03117 14.06098,7.30807 16.93411,7.95648 20.73442,4.67947 2.4264,-2.09227 6.56028,-3.67691 9.18643,-3.52141 9.02203,0.53417 38.3253,-17.63176 57.53598,-35.66818 C 596.21878,176.33044 597.11219,86.677566 546.83619,38.967769 532.53587,25.397388 519.91211,19.207134 498.41469,15.223604 479.9689,11.80555 476.66807,7.9115734 490.65511,6.0696923 531.34109,0.71196698 575.9379,17.593977 599.70361,47.349727 c 18.27524,22.881467 26.22333,40.305008 34.27748,75.142193 10.12641,43.80046 8.21205,70.20177 -7.96674,109.86929 -10.70639,26.25024 -37.78902,62.95117 -62.71235,84.98444 -9.0394,7.99123 -12.67903,12.76742 -11.99589,15.74192 0.5394,2.34855 -1.16122,7.2075 -3.77912,10.79766 -4.37858,6.00473 -4.4195,7.42827 -0.51098,17.77152 2.33688,6.18418 5.14157,10.97434 6.23265,10.64481 4.3339,-1.30888 12.98053,12.78101 17.95856,29.26385 4.88678,16.18057 4.96614,18.00093 1.14044,26.15897 -8.46501,18.05123 -42.56087,43.01495 -86.35308,63.22463 -30.15126,13.91449 -90.97543,34.17644 -121.03334,40.31899 z"
   id="path845" />
</svg>
